<mxfile host="app.diagrams.net" modified="2023-07-13T02:16:05.401Z" agent="Mozilla/5.0 (Windows NT 10.0; Win64; x64) AppleWebKit/537.36 (KHTML, like Gecko) Chrome/114.0.0.0 Safari/537.36" etag="IasGMRv3JJlC_xMfgb4A" version="21.6.2" type="github">
  <diagram name="第 1 页" id="MPzM1UuYQn1_O13hJIVY">
    <mxGraphModel dx="1434" dy="764" grid="1" gridSize="10" guides="1" tooltips="1" connect="1" arrows="1" fold="1" page="1" pageScale="1" pageWidth="827" pageHeight="1169" math="0" shadow="0">
      <root>
        <mxCell id="0" />
        <mxCell id="1" parent="0" />
        <mxCell id="Ufi9HhxbnslWZFxtu-9t-1" value="用户" style="rounded=0;whiteSpace=wrap;html=1;" vertex="1" parent="1">
          <mxGeometry x="80" y="80" width="120" height="60" as="geometry" />
        </mxCell>
        <mxCell id="Ufi9HhxbnslWZFxtu-9t-2" value="授权方（微信）" style="rounded=0;whiteSpace=wrap;html=1;" vertex="1" parent="1">
          <mxGeometry x="400" y="80" width="120" height="60" as="geometry" />
        </mxCell>
        <mxCell id="Ufi9HhxbnslWZFxtu-9t-3" value="app" style="rounded=0;whiteSpace=wrap;html=1;" vertex="1" parent="1">
          <mxGeometry x="240" y="80" width="120" height="60" as="geometry" />
        </mxCell>
        <mxCell id="Ufi9HhxbnslWZFxtu-9t-4" value="资源服务器" style="rounded=0;whiteSpace=wrap;html=1;" vertex="1" parent="1">
          <mxGeometry x="560" y="80" width="120" height="60" as="geometry" />
        </mxCell>
        <mxCell id="Ufi9HhxbnslWZFxtu-9t-8" value="" style="edgeStyle=orthogonalEdgeStyle;rounded=0;orthogonalLoop=1;jettySize=auto;html=1;" edge="1" parent="1" source="Ufi9HhxbnslWZFxtu-9t-6" target="Ufi9HhxbnslWZFxtu-9t-7">
          <mxGeometry relative="1" as="geometry" />
        </mxCell>
        <mxCell id="Ufi9HhxbnslWZFxtu-9t-6" value="点击登录" style="rounded=1;whiteSpace=wrap;html=1;" vertex="1" parent="1">
          <mxGeometry x="80" y="170" width="120" height="60" as="geometry" />
        </mxCell>
        <mxCell id="Ufi9HhxbnslWZFxtu-9t-16" value="" style="edgeStyle=orthogonalEdgeStyle;rounded=0;orthogonalLoop=1;jettySize=auto;html=1;" edge="1" parent="1" source="Ufi9HhxbnslWZFxtu-9t-7" target="Ufi9HhxbnslWZFxtu-9t-15">
          <mxGeometry relative="1" as="geometry" />
        </mxCell>
        <mxCell id="Ufi9HhxbnslWZFxtu-9t-7" value="请求授权码" style="whiteSpace=wrap;html=1;rounded=1;" vertex="1" parent="1">
          <mxGeometry x="240" y="170" width="120" height="60" as="geometry" />
        </mxCell>
        <mxCell id="Ufi9HhxbnslWZFxtu-9t-17" style="edgeStyle=orthogonalEdgeStyle;rounded=0;orthogonalLoop=1;jettySize=auto;html=1;" edge="1" parent="1" source="Ufi9HhxbnslWZFxtu-9t-15">
          <mxGeometry relative="1" as="geometry">
            <mxPoint x="460" y="280" as="targetPoint" />
          </mxGeometry>
        </mxCell>
        <mxCell id="Ufi9HhxbnslWZFxtu-9t-15" value="响应请求，返回登录页面给用户" style="rounded=1;whiteSpace=wrap;html=1;" vertex="1" parent="1">
          <mxGeometry x="400" y="170" width="120" height="60" as="geometry" />
        </mxCell>
        <mxCell id="Ufi9HhxbnslWZFxtu-9t-18" value="" style="endArrow=classic;html=1;rounded=0;" edge="1" parent="1" target="Ufi9HhxbnslWZFxtu-9t-19">
          <mxGeometry width="50" height="50" relative="1" as="geometry">
            <mxPoint x="460" y="280" as="sourcePoint" />
            <mxPoint x="200" y="280" as="targetPoint" />
          </mxGeometry>
        </mxCell>
        <mxCell id="Ufi9HhxbnslWZFxtu-9t-19" value="认证和授权（使用账号密码登录）" style="rounded=1;whiteSpace=wrap;html=1;" vertex="1" parent="1">
          <mxGeometry x="80" y="250" width="120" height="60" as="geometry" />
        </mxCell>
        <mxCell id="Ufi9HhxbnslWZFxtu-9t-22" value="" style="endArrow=classic;html=1;rounded=0;exitX=0.5;exitY=1;exitDx=0;exitDy=0;" edge="1" parent="1" source="Ufi9HhxbnslWZFxtu-9t-19">
          <mxGeometry width="50" height="50" relative="1" as="geometry">
            <mxPoint x="180" y="390" as="sourcePoint" />
            <mxPoint x="140" y="360" as="targetPoint" />
          </mxGeometry>
        </mxCell>
        <mxCell id="Ufi9HhxbnslWZFxtu-9t-23" value="" style="endArrow=classic;html=1;rounded=0;" edge="1" parent="1" target="Ufi9HhxbnslWZFxtu-9t-24">
          <mxGeometry width="50" height="50" relative="1" as="geometry">
            <mxPoint x="140" y="360" as="sourcePoint" />
            <mxPoint x="420" y="360" as="targetPoint" />
          </mxGeometry>
        </mxCell>
        <mxCell id="Ufi9HhxbnslWZFxtu-9t-24" value="登录成功响应授权码给app" style="rounded=1;whiteSpace=wrap;html=1;" vertex="1" parent="1">
          <mxGeometry x="400" y="330" width="120" height="60" as="geometry" />
        </mxCell>
        <mxCell id="Ufi9HhxbnslWZFxtu-9t-25" value="" style="endArrow=classic;html=1;rounded=0;exitX=0.5;exitY=1;exitDx=0;exitDy=0;" edge="1" parent="1" source="Ufi9HhxbnslWZFxtu-9t-24">
          <mxGeometry width="50" height="50" relative="1" as="geometry">
            <mxPoint x="460" y="460" as="sourcePoint" />
            <mxPoint x="460" y="440" as="targetPoint" />
          </mxGeometry>
        </mxCell>
        <mxCell id="Ufi9HhxbnslWZFxtu-9t-26" value="" style="endArrow=classic;html=1;rounded=0;" edge="1" parent="1" target="Ufi9HhxbnslWZFxtu-9t-27">
          <mxGeometry width="50" height="50" relative="1" as="geometry">
            <mxPoint x="460" y="440" as="sourcePoint" />
            <mxPoint x="320" y="440" as="targetPoint" />
          </mxGeometry>
        </mxCell>
        <mxCell id="Ufi9HhxbnslWZFxtu-9t-27" value="拿到授权码，使用授权码请求获取token" style="rounded=1;whiteSpace=wrap;html=1;" vertex="1" parent="1">
          <mxGeometry x="240" y="410" width="120" height="60" as="geometry" />
        </mxCell>
        <mxCell id="Ufi9HhxbnslWZFxtu-9t-28" value="" style="endArrow=classic;html=1;rounded=0;exitX=0.5;exitY=1;exitDx=0;exitDy=0;" edge="1" parent="1">
          <mxGeometry width="50" height="50" relative="1" as="geometry">
            <mxPoint x="299.5" y="470" as="sourcePoint" />
            <mxPoint x="299.5" y="520" as="targetPoint" />
          </mxGeometry>
        </mxCell>
        <mxCell id="Ufi9HhxbnslWZFxtu-9t-29" value="" style="endArrow=classic;html=1;rounded=0;" edge="1" parent="1" target="Ufi9HhxbnslWZFxtu-9t-30">
          <mxGeometry width="50" height="50" relative="1" as="geometry">
            <mxPoint x="300" y="520" as="sourcePoint" />
            <mxPoint x="440" y="520" as="targetPoint" />
          </mxGeometry>
        </mxCell>
        <mxCell id="Ufi9HhxbnslWZFxtu-9t-30" value="返回token" style="rounded=1;whiteSpace=wrap;html=1;" vertex="1" parent="1">
          <mxGeometry x="400" y="490" width="120" height="60" as="geometry" />
        </mxCell>
        <mxCell id="Ufi9HhxbnslWZFxtu-9t-31" value="" style="endArrow=classic;html=1;rounded=0;exitX=0.5;exitY=1;exitDx=0;exitDy=0;" edge="1" parent="1" source="Ufi9HhxbnslWZFxtu-9t-30">
          <mxGeometry width="50" height="50" relative="1" as="geometry">
            <mxPoint x="480" y="590" as="sourcePoint" />
            <mxPoint x="460" y="600" as="targetPoint" />
          </mxGeometry>
        </mxCell>
        <mxCell id="Ufi9HhxbnslWZFxtu-9t-33" value="" style="endArrow=classic;html=1;rounded=0;" edge="1" parent="1" target="Ufi9HhxbnslWZFxtu-9t-34">
          <mxGeometry width="50" height="50" relative="1" as="geometry">
            <mxPoint x="460" y="600" as="sourcePoint" />
            <mxPoint x="300" y="600" as="targetPoint" />
          </mxGeometry>
        </mxCell>
        <mxCell id="Ufi9HhxbnslWZFxtu-9t-34" value="拿到token，使用token请求资源服务器" style="rounded=1;whiteSpace=wrap;html=1;" vertex="1" parent="1">
          <mxGeometry x="240" y="570" width="120" height="60" as="geometry" />
        </mxCell>
        <mxCell id="Ufi9HhxbnslWZFxtu-9t-35" value="" style="endArrow=classic;html=1;rounded=0;exitX=0.5;exitY=1;exitDx=0;exitDy=0;" edge="1" parent="1" source="Ufi9HhxbnslWZFxtu-9t-34">
          <mxGeometry width="50" height="50" relative="1" as="geometry">
            <mxPoint x="390" y="420" as="sourcePoint" />
            <mxPoint x="300" y="680" as="targetPoint" />
          </mxGeometry>
        </mxCell>
        <mxCell id="Ufi9HhxbnslWZFxtu-9t-36" value="" style="endArrow=classic;html=1;rounded=0;" edge="1" parent="1" target="Ufi9HhxbnslWZFxtu-9t-37">
          <mxGeometry width="50" height="50" relative="1" as="geometry">
            <mxPoint x="300" y="680" as="sourcePoint" />
            <mxPoint x="590" y="680" as="targetPoint" />
          </mxGeometry>
        </mxCell>
        <mxCell id="Ufi9HhxbnslWZFxtu-9t-37" value="返回资源给app" style="rounded=1;whiteSpace=wrap;html=1;" vertex="1" parent="1">
          <mxGeometry x="560" y="650" width="120" height="60" as="geometry" />
        </mxCell>
      </root>
    </mxGraphModel>
  </diagram>
</mxfile>
